HIERARCHY
ROOT Hips
{
	OFFSET 0.00000 0.00000 0.00000
	CHANNELS 6 Xposition Yposition Zposition Zrotation Yrotation Xrotation 
	JOINT LHipJoint
	{
		OFFSET 0 0 0
		CHANNELS 3 Zrotation Yrotation Xrotation
		JOINT LeftUpLeg
		{
			OFFSET 1.46561 -1.72757 0.83774
			CHANNELS 3 Zrotation Yrotation Xrotation
			JOINT LeftLeg
			{
				OFFSET 2.48915 -6.83890 0.00000
				CHANNELS 3 Zrotation Yrotation Xrotation
				JOINT LeftFoot
				{
					OFFSET 2.60555 -7.15868 0.00000
					CHANNELS 3 Zrotation Yrotation Xrotation
					JOINT LeftToeBase
					{
						OFFSET 0.19248 -0.52884 2.26738
						CHANNELS 3 Zrotation Yrotation Xrotation
						End Site
						{
							OFFSET 0.00000 -0.00000 1.17015
						}
					}
				}
			}
		}
	}
	JOINT RHipJoint
	{
		OFFSET 0 0 0
		CHANNELS 3 Zrotation Yrotation Xrotation
		JOINT RightUpLeg
		{
			OFFSET -1.46918 -1.72757 0.83774
			CHANNELS 3 Zrotation Yrotation Xrotation
			JOINT RightLeg
			{
				OFFSET -2.49034 -6.84216 0.00000
				CHANNELS 3 Zrotation Yrotation Xrotation
				JOINT RightFoot
				{
					OFFSET -2.65971 -7.30750 0.00000
					CHANNELS 3 Zrotation Yrotation Xrotation
					JOINT RightToeBase
					{
						OFFSET -0.19227 -0.52827 2.30785
						CHANNELS 3 Zrotation Yrotation Xrotation
						End Site
						{
							OFFSET -0.00000 -0.00000 1.18972
						}
					}
				}
			}
		}
	}
	JOINT LowerBack
	{
		OFFSET 0 0 0
		CHANNELS 3 Zrotation Yrotation Xrotation
		JOINT Spine
		{
			OFFSET 0.02432 2.19909 -0.28000
			CHANNELS 3 Zrotation Yrotation Xrotation
			JOINT Spine1
			{
				OFFSET 0.03714 2.21816 -0.15261
				CHANNELS 3 Zrotation Yrotation Xrotation
				JOINT Neck
				{
					OFFSET 0 0 0
					CHANNELS 3 Zrotation Yrotation Xrotation
					JOINT Neck1
					{
						OFFSET -0.01896 1.56165 0.21681
						CHANNELS 3 Zrotation Yrotation Xrotation
						JOINT Head
						{
							OFFSET 0.02744 1.56009 0.06764
							CHANNELS 3 Zrotation Yrotation Xrotation
							End Site
							{
								OFFSET 0.01212 1.60574 0.00298
							}
						}
					}
				}
				JOINT LeftShoulder
				{
					OFFSET 0 0 0
					CHANNELS 3 Zrotation Yrotation Xrotation
					JOINT LeftArm
					{
						OFFSET 3.05595 1.48048 -0.60794
						CHANNELS 3 Zrotation Yrotation Xrotation
						JOINT LeftForeArm
						{
							OFFSET 5.20607 -0.00000 -0.00000
							CHANNELS 3 Zrotation Yrotation Xrotation
							JOINT LeftHand
							{
								OFFSET 3.39961 -0.00000 0.00000
								CHANNELS 3 Zrotation Yrotation Xrotation
								JOINT LeftFingerBase
								{
									OFFSET 0 0 0
									CHANNELS 3 Zrotation Yrotation Xrotation
									JOINT LeftHandIndex1
									{
										OFFSET 0.51969 -0.00000 0.00000
										CHANNELS 3 Zrotation Yrotation Xrotation
										End Site
										{
											OFFSET 0.41899 -0.00000 0.00000
										}
									}
								}
								JOINT LThumb
								{
									OFFSET 0 0 0
									CHANNELS 3 Zrotation Yrotation Xrotation
									End Site
									{
										OFFSET 0.42539 -0.00000 0.42539
									}
								}
							}
						}
					}
				}
				JOINT RightShoulder
				{
					OFFSET 0 0 0
					CHANNELS 3 Zrotation Yrotation Xrotation
					JOINT RightArm
					{
						OFFSET -2.99052 1.57608 -0.69102
						CHANNELS 3 Zrotation Yrotation Xrotation
						JOINT RightForeArm
						{
							OFFSET -5.32214 -0.00000 0.00000
							CHANNELS 3 Zrotation Yrotation Xrotation
							JOINT RightHand
							{
								OFFSET -3.51208 -0.00000 0.00000
								CHANNELS 3 Zrotation Yrotation Xrotation
								JOINT RightFingerBase
								{
									OFFSET 0 0 0
									CHANNELS 3 Zrotation Yrotation Xrotation
									JOINT RightHandIndex1
									{
										OFFSET -0.58668 -0.00000 0.00000
										CHANNELS 3 Zrotation Yrotation Xrotation
										End Site
										{
											OFFSET -0.47300 -0.00000 0.00000
										}
									}
								}
								JOINT RThumb
								{
									OFFSET 0 0 0
									CHANNELS 3 Zrotation Yrotation Xrotation
									End Site
									{
										OFFSET -0.48022 -0.00000 0.48022
									}
								}
							}
						}
					}
				}
			}
		}
	}
}
MOTION
Frames: 16
Frame Time: .0083333
0.4254 17.6131 -13.8641 0 0 0 0 0 0 -21 0 0 0 0 0 0 0 0 0 0 0 0 0 0 21 0 0 0 0 0 0 0 0 0 0 0 0 0 0 0 0 0 0 0 0 0 0 -16 0 0 21 0 0 11 0 0 0 -8 0 0 0 0 0 0 0 0 0 0 0 0 0 0 0 0 0 0 0 0 8 0 0 0 0 0 0 0 0 0 0 0 0 0 0 0 0 0
0.4254 17.6131 -13.8641 -1.2404 -2.4823 7.2579 0.0000 0.0000 0.0000 -18.9477 2.4361 -14.3776 1.0305 6.4572 18.1170 0.4040 1.7120 -12.7522 0.0318 1.1506 3.1634 0.0000 0.0000 0.0000 18.2675 3.4563 -14.7812 -1.4578 -7.6313 21.5996 -0.5733 2.1954 -13.7184 -0.2010 -2.8871 7.9645 -0.2367 -0.2623 0.3177 1.3931 -0.4107 5.4403 1.5577 -0.2540 5.4580 -1.2173 1.0213 -11.4436 -0.8708 2.1214 35.9968 0.1795 0.6208 14.2229 0.0000 0.0000 0.0000 -87.6098 -6.1724 35.6198 12.5185 -20.5776 -2.2813 -0.0000 0.0000 -13.0091 26.8256 -3.3123 -1.6736 -7.1250 0.0000 -0.0000 0.1616 26.2691 -0.0734 0.0000 0.0000 0.0000 87.5724 4.1204 14.3999 -14.5500 23.5155 -3.0441 0.0000 0.0000 26.7464 -20.2415 -23.6280 8.4071 7.1250 -0.0000 -0.0000 9.5736 -54.7227 -2.3022
0.4246 17.6129 -13.8645 -1.2274 -2.4873 7.2464 0.0000 0.0000 0.0000 -18.9592 2.4347 -14.3646 1.0304 6.4568 18.1157 0.4035 1.7242 -12.7512 0.0310 1.1357 3.1224 0.0000 0.0000 0.0000 18.2563 3.4537 -14.7616 -1.4562 -7.6274 21.5878 -0.5729 2.1972 -13.7130 -0.2018 -2.8924 7.9794 -0.2387 -0.2472 0.3119 1.3808 -0.3899 5.4360 1.5470 -0.2434 5.4560 -1.1865 1.0178 -11.4220 -0.8849 2.1133 36.0144 0.1670 0.6196 14.2267 0.0000 -0.0000 0.0000 -87.6067 -6.1647 35.6737 12.5102 -20.5654 -2.2783 -0.0000 0.0000 -13.0232 26.8629 -3.2374 -1.6385 -7.1250 0.0000 -0.0000 0.1917 26.3516 -0.0867 0.0000 -0.0000 0.0000 87.5862 4.0985 14.3726 -14.5511 23.5170 -3.0445 0.0000 0.0000 26.7427 -20.2088 -23.6138 8.3879 7.1250 -0.0000 -0.0000 9.6014 -54.7019 -2.3042
0.4239 17.6129 -13.8650 -1.2356 -2.4673 7.2414 0.0000 0.0000 0.0000 -18.9471 2.4312 -14.3587 1.0301 6.4559 18.1131 0.4047 1.7106 -12.7627 0.0309 1.1356 3.1220 0.0000 0.0000 0.0000 18.2693 3.4494 -14.7537 -1.4564 -7.6277 21.5888 -0.5739 2.1896 -13.7277 -0.2044 -2.9109 8.0309 -0.2361 -0.2488 0.3032 1.3900 -0.3926 5.4383 1.5549 -0.2449 5.4636 -1.1999 1.0213 -11.4398 -0.8677 2.1168 36.0274 0.1771 0.6214 14.2363 0.0000 -0.0000 0.0000 -87.6396 -6.1809 35.6366 12.5029 -20.5546 -2.2758 -0.0000 0.0000 -12.9642 26.8906 -3.3837 -1.7145 -7.1250 0.0000 -0.0000 0.2092 26.1870 -0.0954 0.0000 -0.0000 0.0000 87.5791 4.1095 14.3822 -14.5467 23.5108 -3.0428 0.0000 0.0000 26.7551 -20.2040 -23.6447 8.3959 7.1250 -0.0000 -0.0000 9.6191 -54.7323 -2.3156
0.4232 17.6129 -13.8662 -1.2281 -2.4749 7.2329 0.0000 0.0000 0.0000 -18.9534 2.4348 -14.3531 1.0298 6.4550 18.1105 0.4044 1.7128 -12.7588 0.0315 1.1459 3.1503 0.0000 0.0000 0.0000 18.2628 3.4509 -14.7506 -1.4564 -7.6279 21.5894 -0.5738 2.1931 -13.7256 -0.2033 -2.9031 8.0092 -0.2444 -0.2427 0.3150 1.3869 -0.3840 5.4386 1.5568 -0.2409 5.4570 -1.1985 1.0206 -11.4466 -0.8684 2.1161 36.0273 0.1765 0.6213 14.2378 -0.0000 -0.0000 0.0000 -87.6451 -6.1861 35.6408 12.5073 -20.5611 -2.2773 -0.0000 0.0000 -12.9720 26.8616 -3.3542 -1.6974 -7.1250 0.0000 -0.0000 0.1879 26.2210 -0.0856 -0.0000 -0.0000 0.0000 87.5851 4.1234 14.3684 -14.5401 23.5015 -3.0402 0.0000 0.0000 26.7774 -20.2358 -23.5884 8.3915 7.1250 -0.0000 -0.0000 9.5629 -54.6812 -2.2900
0.4224 17.6129 -13.8670 -1.2273 -2.4719 7.2259 0.0000 0.0000 0.0000 -18.9510 2.4322 -14.3478 1.0298 6.4549 18.1102 0.4045 1.7126 -12.7597 0.0316 1.1475 3.1548 0.0000 0.0000 0.0000 18.2648 3.4528 -14.7448 -1.4568 -7.6288 21.5921 -0.5741 2.1894 -13.7297 -0.2032 -2.9028 8.0083 -0.2443 -0.2379 0.3169 1.3862 -0.3776 5.4387 1.5563 -0.2376 5.4557 -1.1963 1.0206 -11.4510 -0.8657 2.1149 36.0325 0.1771 0.6214 14.2412 0.0000 0.0000 0.0000 -87.6547 -6.1920 35.6478 12.5088 -20.5634 -2.2779 -0.0000 0.0000 -12.9766 26.8674 -3.3666 -1.7041 -7.1250 0.0000 -0.0000 0.1920 26.2068 -0.0875 0.0000 0.0000 0.0000 87.5904 4.1301 14.3629 -14.5368 23.4969 -3.0389 0.0000 0.0000 26.7880 -20.2473 -23.5754 8.3923 7.1250 -0.0000 -0.0000 9.5458 -54.6702 -2.2832
0.4217 17.6128 -13.8680 -1.2277 -2.4678 7.2192 0.0000 0.0000 0.0000 -18.9474 2.4299 -14.3417 1.0295 6.4539 18.1074 0.4044 1.7114 -12.7579 0.0317 1.1491 3.1592 0.0000 0.0000 0.0000 18.2678 3.4541 -14.7420 -1.4578 -7.6312 21.5994 -0.5746 2.1867 -13.7361 -0.2029 -2.9005 8.0018 -0.2419 -0.2338 0.3204 1.3854 -0.3721 5.4386 1.5544 -0.2348 5.4535 -1.1947 1.0200 -11.4552 -0.8626 2.1129 36.0361 0.1778 0.6212 14.2438 0.0000 0.0000 0.0000 -87.6623 -6.1970 35.6559 12.5124 -20.5687 -2.2791 -0.0000 0.0000 -12.9897 26.8761 -3.3846 -1.7138 -7.1250 0.0000 -0.0000 0.1982 26.1863 -0.0904 0.0000 0.0000 0.0000 87.5972 4.1376 14.3590 -14.5335 23.4923 -3.0375 0.0000 0.0000 26.7960 -20.2613 -23.5622 8.3942 7.1250 -0.0000 -0.0000 9.5258 -54.6594 -2.2759
0.4210 17.6128 -13.8689 -1.2293 -2.4616 7.2115 0.0000 0.0000 0.0000 -18.9417 2.4264 -14.3364 1.0295 6.4540 18.1076 0.4042 1.7096 -12.7541 0.0316 1.1479 3.1558 0.0000 0.0000 0.0000 18.2727 3.4541 -14.7367 -1.4583 -7.6326 21.6035 -0.5749 2.1811 -13.7413 -0.2024 -2.8968 7.9916 -0.2370 -0.2305 0.3260 1.3844 -0.3677 5.4380 1.5508 -0.2323 5.4494 -1.1927 1.0194 -11.4546 -0.8598 2.1108 36.0369 0.1783 0.6210 14.2440 -0.0000 -0.0000 0.0000 -87.6682 -6.2001 35.6655 12.5176 -20.5764 -2.2810 -0.0000 0.0000 -13.0093 26.8849 -3.3909 -1.7176 -7.1250 0.0000 -0.0000 0.2047 26.1791 -0.0934 -0.0000 -0.0000 0.0000 87.6053 4.1438 14.3556 -14.5308 23.4884 -3.0365 0.0000 0.0000 26.8007 -20.2757 -23.5549 8.3981 7.1250 -0.0000 -0.0000 9.5080 -54.6548 -2.2705
0.4203 17.6126 -13.8699 -1.2308 -2.4526 7.2028 0.0000 0.0000 0.0000 -18.9357 2.4219 -14.3304 1.0297 6.4546 18.1094 0.4041 1.7061 -12.7508 0.0316 1.1477 3.1552 0.0000 0.0000 0.0000 18.2779 3.4523 -14.7301 -1.4587 -7.6337 21.6068 -0.5753 2.1741 -13.7474 -0.2019 -2.8933 7.9818 -0.2321 -0.2283 0.3321 1.3840 -0.3648 5.4368 1.5478 -0.2306 5.4445 -1.1904 1.0190 -11.4513 -0.8578 2.1089 36.0375 0.1785 0.6208 14.2435 -0.0000 -0.0000 0.0000 -87.6741 -6.2012 35.6759 12.5236 -20.5853 -2.2831 -0.0000 0.0000 -13.0333 26.8948 -3.3948 -1.7204 -7.1250 0.0000 -0.0000 0.2121 26.1744 -0.0968 -0.0000 -0.0000 0.0000 87.6137 4.1473 14.3524 -14.5279 23.4843 -3.0353 0.0000 0.0000 26.8046 -20.2874 -23.5498 8.4016 7.1250 -0.0000 -0.0000 9.4940 -54.6519 -2.2664
0.4196 17.6124 -13.8708 -1.2301 -2.4437 7.1929 0.0000 0.0000 0.0000 -18.9324 2.4181 -14.3238 1.0301 6.4558 18.1129 0.4041 1.7014 -12.7484 0.0317 1.1493 3.1596 0.0000 0.0000 0.0000 18.2806 3.4468 -14.7232 -1.4590 -7.6343 21.6086 -0.5756 2.1690 -13.7519 -0.2014 -2.8898 7.9720 -0.2294 -0.2264 0.3388 1.3837 -0.3624 5.4356 1.5460 -0.2292 5.4393 -1.1873 1.0187 -11.4473 -0.8581 2.1078 36.0376 0.1776 0.6208 14.2426 0.0000 -0.0000 0.0000 -87.6811 -6.2023 35.6848 12.5294 -20.5939 -2.2851 -0.0000 0.0000 -13.0567 26.9035 -3.4070 -1.7272 -7.1250 0.0000 -0.0000 0.2184 26.1604 -0.0997 0.0000 -0.0000 0.0000 87.6201 4.1489 14.3527 -14.5263 23.4820 -3.0347 0.0000 0.0000 26.8017 -20.2956 -23.5487 8.4049 7.1250 -0.0000 -0.0000 9.4850 -54.6524 -2.2644
0.4190 17.6122 -13.8717 -1.2310 -2.4339 7.1823 0.0000 0.0000 0.0000 -18.9273 2.4132 -14.3166 1.0307 6.4577 18.1182 0.4042 1.6971 -12.7475 0.0319 1.1523 3.1680 0.0000 0.0000 0.0000 18.2853 3.4393 -14.7156 -1.4590 -7.6344 21.6090 -0.5758 2.1643 -13.7557 -0.2011 -2.8878 7.9665 -0.2266 -0.2258 0.3470 1.3854 -0.3616 5.4338 1.5463 -0.2287 5.4327 -1.1848 1.0190 -11.4404 -0.8606 2.1086 36.0369 0.1762 0.6213 14.2409 0.0000 -0.0000 0.0000 -87.6893 -6.2011 35.6939 12.5361 -20.6038 -2.2875 -0.0000 0.0000 -13.0804 26.9120 -3.4188 -1.7338 -7.1250 0.0000 -0.0000 0.2246 26.1469 -0.1026 0.0000 -0.0000 0.0000 87.6243 4.1495 14.3541 -14.5243 23.4793 -3.0339 0.0000 0.0000 26.8002 -20.3009 -23.5456 8.4063 7.1250 -0.0000 -0.0000 9.4782 -54.6503 -2.2623
0.4184 17.6119 -13.8727 -1.2303 -2.4238 7.1720 0.0000 0.0000 0.0000 -18.9239 2.4065 -14.3100 1.0314 6.4599 18.1247 0.4044 1.6932 -12.7484 0.0322 1.1578 3.1830 0.0000 0.0000 0.0000 18.2882 3.4315 -14.7086 -1.4590 -7.6343 21.6086 -0.5760 2.1585 -13.7585 -0.2008 -2.8851 7.9592 -0.2261 -0.2256 0.3538 1.3875 -0.3614 5.4324 1.5482 -0.2286 5.4274 -1.1808 1.0201 -11.4341 -0.8658 2.1109 36.0370 0.1737 0.6223 14.2396 -0.0000 -0.0000 0.0000 -87.6984 -6.2002 35.7054 12.5425 -20.6131 -2.2897 -0.0000 0.0000 -13.1044 26.9215 -3.4413 -1.7459 -7.1250 0.0000 -0.0000 0.2312 26.1214 -0.1058 -0.0000 -0.0000 0.0000 87.6265 4.1493 14.3592 -14.5242 23.4792 -3.0339 0.0000 0.0000 26.7962 -20.3008 -23.5503 8.4078 7.1250 -0.0000 -0.0000 9.4803 -54.6551 -2.2639
0.4179 17.6116 -13.8737 -1.2298 -2.4132 7.1624 0.0000 0.0000 0.0000 -18.9205 2.3987 -14.3046 1.0323 6.4625 18.1324 0.4046 1.6900 -12.7503 0.0325 1.1633 3.1981 0.0000 0.0000 0.0000 18.2908 3.4215 -14.7031 -1.4589 -7.6340 21.6079 -0.5760 2.1559 -13.7600 -0.2008 -2.8852 7.9594 -0.2247 -0.2255 0.3601 1.3898 -0.3613 5.4309 1.5498 -0.2285 5.4222 -1.1745 1.0212 -11.4284 -0.8734 2.1136 36.0382 0.1699 0.6234 14.2391 -0.0000 0.0000 0.0000 -87.7071 -6.1983 35.7182 12.5495 -20.6235 -2.2922 -0.0000 0.0000 -13.1253 26.9316 -3.4636 -1.7580 -7.1250 0.0000 -0.0000 0.2383 26.0960 -0.1092 -0.0000 0.0000 0.0000 87.6279 4.1484 14.3662 -14.5256 23.4810 -3.0344 0.0000 0.0000 26.7879 -20.2991 -23.5500 8.4069 7.1250 -0.0000 -0.0000 9.4819 -54.6545 -2.2641
0.4173 17.6113 -13.8747 -1.2281 -2.4015 7.1552 0.0000 0.0000 0.0000 -18.9181 2.3880 -14.3015 1.0331 6.4651 18.1401 0.4048 1.6874 -12.7514 0.0327 1.1681 3.2113 0.0000 0.0000 0.0000 18.2920 3.4130 -14.7000 -1.4589 -7.6341 21.6080 -0.5761 2.1516 -13.7612 -0.2009 -2.8863 7.9624 -0.2244 -0.2255 0.3629 1.3913 -0.3613 5.4299 1.5513 -0.2285 5.4195 -1.1683 1.0213 -11.4232 -0.8791 2.1142 36.0386 0.1665 0.6238 14.2382 0.0000 0.0000 0.0000 -87.7146 -6.1979 35.7341 12.5571 -20.6348 -2.2948 -0.0000 0.0000 -13.1426 26.9373 -3.4690 -1.7612 -7.1250 0.0000 -0.0000 0.2425 26.0897 -0.1111 0.0000 0.0000 0.0000 87.6300 4.1491 14.3712 -14.5284 23.4851 -3.0355 0.0000 0.0000 26.7830 -20.2932 -23.5526 8.4052 7.1250 -0.0000 -0.0000 9.4890 -54.6559 -2.2661
0.4166 17.6112 -13.8757 -1.2273 -2.3890 7.1499 0.0000 0.0000 0.0000 -18.9149 2.3768 -14.3009 1.0340 6.4677 18.1475 0.4048 1.6852 -12.7513 0.0330 1.1719 3.2219 0.0000 0.0000 0.0000 18.2939 3.4063 -14.6988 -1.4590 -7.6344 21.6091 -0.5761 2.1470 -13.7624 -0.2012 -2.8886 7.9688 -0.2224 -0.2248 0.3640 1.3919 -0.3605 5.4291 1.5508 -0.2280 5.4179 -1.1599 1.0198 -11.4224 -0.8831 2.1114 36.0421 0.1630 0.6232 14.2398 0.0000 0.0000 0.0000 -87.7197 -6.1998 35.7530 12.5629 -20.6435 -2.2969 -0.0000 0.0000 -13.1554 26.9417 -3.4711 -1.7625 -7.1250 0.0000 -0.0000 0.2458 26.0873 -0.1127 0.0000 0.0000 0.0000 87.6341 4.1505 14.3727 -14.5315 23.4894 -3.0367 0.0000 0.0000 26.7800 -20.2870 -23.5450 8.3999 7.1250 -0.0000 -0.0000 9.4923 -54.6470 -2.2649
0.4160 17.6111 -13.8766 -1.2271 -2.3760 7.1458 0.0000 0.0000 0.0000 -18.9112 2.3663 -14.3020 1.0348 6.4701 18.1547 0.4048 1.6822 -12.7487 0.0330 1.1728 3.2243 0.0000 0.0000 0.0000 18.2965 3.3991 -14.6999 -1.4593 -7.6351 21.6112 -0.5761 2.1432 -13.7627 -0.2017 -2.8918 7.9775 -0.2185 -0.2241 0.3639 1.3914 -0.3595 5.4281 1.5481 -0.2273 5.4170 -1.1553 1.0167 -11.4197 -0.8803 2.1048 36.0440 0.1623 0.6214 14.2401 0.0000 -0.0000 0.0000 -87.7227 -6.2031 35.7726 12.5673 -20.6499 -2.2984 -0.0000 0.0000 -13.1619 26.9354 -3.4604 -1.7566 -7.1250 0.0000 -0.0000 0.2413 26.0995 -0.1105 0.0000 -0.0000 0.0000 87.6402 4.1515 14.3719 -14.5345 23.4937 -3.0380 0.0000 0.0000 26.7778 -20.2838 -23.5334 8.3946 7.1250 -0.0000 -0.0000 9.4908 -54.6346 -2.2616
